<svg width="237" height="56" viewBox="0 0 237 56" fill="none" xmlns="http://www.w3.org/2000/svg">
<path fill-rule="evenodd" clip-rule="evenodd" d="M27.5147 0C42.3671 0 54.4113 12.4593 54.4113 27.8263C54.4113 43.1933 42.371 55.6526 27.5147 55.6526C12.6584 55.6526 0.618164 43.1933 0.618164 27.8263C0.618164 12.4593 12.6584 0 27.5147 0ZM32.946 53.6879C32.8239 53.6011 32.7136 53.5261 32.627 53.4709L31.3509 52.4688C31.0082 52.2439 31.1067 52.1334 30.5277 51.7665L27.7589 48.7878C27.1681 48.121 26.8215 47.5253 26.3174 46.8112C26.2071 46.6573 26.1047 46.5192 26.0023 46.3614L25.1279 44.9529C24.9743 44.6413 24.7971 44.227 24.612 43.9587C24.0212 43.0908 23.588 41.777 23.1508 40.8025C22.9932 40.4513 22.3355 38.242 22.2922 37.875C22.2567 37.5752 22.2331 37.4647 22.1779 37.2162C22.111 36.9203 22.0519 36.6165 22.0007 36.3127C21.3193 36.1194 20.4922 35.8432 20.1417 35.6657C19.8384 35.5158 19.5627 35.4447 19.2792 35.3145C19.0113 35.1883 18.7632 35.0463 18.4914 34.9121L16.4867 33.3024C16.3252 33.0854 16.1047 32.9039 15.8998 32.6988C15.5217 32.324 15.6754 32.3792 15.3681 32.032L14.4032 30.592C13.9384 29.6925 13.6746 28.9705 13.4107 27.9723C13.2768 27.4673 13.328 27.3766 12.7963 27.2661C12.7963 28.4812 12.8711 28.1262 12.9105 28.6903C13.0089 30.0475 13.1192 31.4836 13.4185 32.7816C13.4776 33.0302 13.5013 33.1407 13.5328 33.4405C13.5761 33.8074 14.2338 36.0168 14.3914 36.3679C14.8286 37.3424 15.2618 38.6562 15.8526 39.5242C16.0377 39.7925 16.2149 40.2067 16.3685 40.5184L17.2429 41.9269C17.3492 42.0847 17.4517 42.2228 17.558 42.3767C18.0621 43.0908 18.4087 43.6865 18.9995 44.3533L21.7683 47.332C22.3434 47.6989 22.2488 47.8094 22.5915 48.0342L23.8676 49.0364C24.3284 49.3204 25.3997 50.1923 26.1362 50.6342L27.5187 51.518C27.6841 51.6126 27.8456 51.6797 28.0189 51.7784C28.712 52.1689 29.3816 52.4096 30.0827 52.7489C30.3741 52.8909 30.8389 53.0527 31.1815 53.1671L32.946 53.6918V53.6879ZM22.9066 36.5336C23.4934 36.6283 28.1922 38.5142 29.2713 39.0626C30.0866 39.4808 30.9413 39.8477 31.6739 40.3882L32.9539 41.3824C33.7219 42.0216 33.9385 42.1833 34.9035 42.4122C35.8172 42.6292 36.7467 42.4201 37.4793 42.1754C38.4955 41.8401 39.1965 41.1536 39.7519 40.329C40.4254 39.3269 40.5475 38.0999 40.319 36.9321C40.1379 36.005 40.7365 36.7901 39.8385 35.4329C39.0863 34.2927 37.8771 31.2666 37.2588 29.7871L36.7467 28.0315C36.5459 27.2819 36.3686 26.3389 36.3293 25.4473C36.2938 24.6543 36.1678 23.518 35.9827 22.8158L38.6688 21.2653C39.1138 20.9891 39.5825 20.7445 40.0276 20.4723L44.7854 17.6947C45.1083 17.5054 46.6444 16.7163 46.8098 16.4322L39.7243 18.2589C39.5431 18.3339 35.5376 19.194 35.3249 19.1624C34.8168 18.3615 34.3836 17.6237 33.7928 16.8741C33.7771 16.7715 33.8086 16.5861 33.8676 16.381C34.1276 15.4538 33.7613 14.3846 33.6865 13.418C33.6628 13.0827 33.6077 12.767 33.4935 12.4948C33.0248 12.341 32.4143 13.1221 32.1583 13.4101C31.7684 13.8481 31.5754 14.2505 31.217 14.72C30.7365 14.7003 29.0114 13.6942 27.818 13.7889C27.4635 11.7965 27.6998 10.2381 28.7278 9.19654C20.4528 8.90853 14.8601 12.3922 8.97977 17.5646C8.91281 17.6356 8.84979 17.7539 8.78678 17.8289L9.85019 17.0359C10.1968 16.7755 10.6103 16.5348 10.9806 16.2665C11.5359 15.8602 12.1109 15.4775 12.7332 15.1816L13.2059 14.9567C13.2689 14.9291 13.1901 14.9291 13.3792 14.8975C13.2728 15.0672 12.3551 15.6392 12.0716 15.8444C11.1499 16.519 10.3583 17.2331 9.67296 18.1287C9.19245 18.756 8.59772 19.4228 8.15267 20.0935C7.66428 20.8392 7.1759 21.4823 6.77022 22.2516C6.5733 22.6264 5.20267 25.1159 5.41141 25.4236L5.75013 24.7805C6.3291 23.7035 7.08531 22.7605 7.95574 21.9202L8.40473 21.4823C8.61742 21.285 8.80253 21.0483 9.09005 20.993C9.0034 21.3323 8.77496 21.5178 8.61742 21.7584C6.03765 25.6998 4.26529 31.1009 4.37951 35.9261C5.14753 34.1073 5.81315 32.5647 7.11682 31.093C6.38818 33.6575 5.99826 36.3877 6.32123 40.4592C6.4 41.4574 6.63631 42.4358 6.78598 43.3788C6.81355 43.5642 6.86081 43.8522 6.91201 44.1718C11.658 50.5592 19.1137 54.6742 27.5029 54.6742C29.6337 54.6742 31.7014 54.4059 33.6825 53.9049C33.8873 53.8536 34.0921 53.7984 34.297 53.7431C31.406 51.4746 28.3851 48.9772 26.5734 45.7341L25.892 44.5821C25.191 43.3156 22.7766 37.7409 22.8908 36.5297L22.9066 36.5336ZM26.0417 25.8103C27.3335 25.8734 28.523 26.7808 28.6766 27.6172L28.8814 27.3529C28.9838 27.2385 29.0114 27.2385 29.102 27.0649C29.2359 26.8045 29.295 26.5678 29.2871 26.2127C29.2674 24.9147 27.9598 24.2834 26.9594 24.7292C26.6285 24.8792 26.6404 24.9226 26.4001 25.183C26.1677 25.4355 26.0614 25.3329 26.0456 25.8103H26.0417ZM20.2441 15.6392C20.2441 17.8328 20.6892 18.1011 21.0988 19.4228L21.3942 19.2729C21.3942 19.2729 21.4257 19.2571 21.4414 19.2492C21.4178 18.906 21.0515 18.1406 20.9176 17.6632C20.4647 16.0732 20.6892 13.6074 21.3587 12.1279C21.9889 12.0963 23.5052 14.144 23.8321 14.7476C24.5608 16.0969 24.7971 16.9688 24.9743 18.7245C25.0846 18.5785 25.1319 18.4956 25.2422 18.3221C25.3603 18.1445 25.38 18.0735 25.317 17.821C25.2382 17.5054 25.2382 17.1306 25.061 16.5427C24.5529 14.866 23.5486 13.1063 22.1267 12.0174C21.9928 11.9149 21.3863 11.4335 21.2287 11.398C21.0554 11.6111 20.5513 12.9288 20.4962 13.2365C20.3544 14.0256 20.2441 14.8107 20.2441 15.6353V15.6392Z" fill="white"/>
<path fill-rule="evenodd" clip-rule="evenodd" d="M27.5149 0.264404C42.7099 0.264404 55.0298 12.6054 55.0298 27.8264C55.0298 43.0474 42.7099 55.3884 27.5149 55.3884C12.3199 55.3884 0 43.0474 0 27.8264C0 12.6054 12.3199 0.264404 27.5149 0.264404ZM27.5149 2.07136C13.3124 2.07136 1.80387 13.5996 1.80387 27.8264C1.80387 42.0532 13.3163 53.5814 27.5149 53.5814C41.7135 53.5814 53.226 42.0493 53.226 27.8264C53.226 13.6035 41.7135 2.07136 27.5149 2.07136Z" fill="white"/>
<path d="M38.0114 17.9362L37.3745 18.1006L38.4802 22.3987L39.1171 22.2342L38.0114 17.9362Z" fill="white"/>
<path d="M41.7287 16.45L41.0918 16.6145L42.1982 20.9124L42.8351 20.7479L41.7287 16.45Z" fill="white"/>
<path fill-rule="evenodd" clip-rule="evenodd" d="M195.874 45.4381V13.1733H237V45.4381H195.874ZM198.103 43.2051H234.771V15.4064H198.103V43.2051Z" fill="white"/>
<path d="M80.2921 38.1708H78.1061L77.539 35.9811L75.5933 30.3827L69.4373 30.2999L63.8879 30.3827L61.7807 35.9022L61.1742 38.1747H58.9883L68.8741 12.2461H71.2648L80.2999 38.1747L80.2921 38.1708ZM74.9435 28.5126L70.1226 14.6764H69.8784L64.6126 28.5126L69.6776 28.5521L74.9435 28.5126Z" fill="white"/>
<path d="M87.0584 30.1383L87.1806 38.1749H85.1128L85.2349 30.2606L85.1128 9.89091L87.2199 9.6897L87.0584 30.1422V30.1383Z" fill="white"/>
<path d="M106.015 21.6951L105.976 21.8174C106.759 22.8472 107.149 24.1452 107.149 25.7115C107.149 27.6605 106.535 29.207 105.306 30.3591C104.077 31.5111 102.411 32.0832 100.304 32.0832C99.3037 32.0832 98.3584 31.9332 97.4683 31.6373C96.846 32.0989 96.4285 32.4698 96.2119 32.7539C95.9953 33.0379 95.8889 33.3141 95.8889 33.5863C95.8889 34.1821 96.2749 34.6082 97.0429 34.8646C97.8109 35.1211 99.0201 35.3736 100.67 35.6142C102.262 35.8588 103.573 36.1153 104.601 36.3836C105.625 36.6558 106.503 37.0858 107.236 37.6816C107.965 38.2773 108.331 39.0861 108.331 40.1158C108.331 41.1456 107.953 42.1437 107.197 43.0393C106.44 43.9309 105.412 44.6411 104.117 45.1698C102.821 45.6985 101.415 45.9628 99.9023 45.9628C97.8503 45.9628 96.2355 45.4972 95.0618 44.5622C93.8881 43.6272 93.3013 42.4317 93.3013 40.972C93.5691 40.1592 94.0181 39.4372 94.6364 38.802C95.2587 38.1668 96.0937 37.5395 97.1493 36.9162V36.715C96.1213 36.4467 95.3178 36.0719 94.7388 35.5984C94.1599 35.125 93.8684 34.4819 93.8684 33.6692C94.219 32.8841 95.0303 32.0753 96.2985 31.2349V31.1126C94.5695 30.0316 93.7069 28.2996 93.7069 25.9166C93.7069 23.9164 94.3214 22.3461 95.5502 21.2099C96.779 20.0736 98.4451 19.5055 100.552 19.5055C102.037 19.5055 103.278 19.7896 104.278 20.3577C106.547 19.9237 108.398 19.5055 109.828 19.0991L110.072 19.2609V20.8035C108.831 21.127 107.48 21.4269 106.019 21.6951H106.015ZM105.609 38.7389C105.07 38.3325 104.4 38.0366 103.605 37.8473C102.809 37.6579 101.734 37.4685 100.383 37.2791L99.0477 37.0779C97.807 37.7526 96.8539 38.4312 96.1922 39.1058C95.5305 39.7805 95.1997 40.4985 95.1997 41.256C95.1997 42.1477 95.6329 42.9012 96.4955 43.5088C97.358 44.1164 98.5632 44.4202 100.099 44.4202C101.261 44.4202 102.321 44.2387 103.278 43.8718C104.235 43.5049 104.999 43.0117 105.566 42.3923C106.133 41.7689 106.417 41.1061 106.417 40.4038C106.417 39.7016 106.145 39.1453 105.605 38.7389H105.609ZM103.947 29.2623C104.81 28.4101 105.243 27.2265 105.243 25.7115C105.243 24.1965 104.829 23.0721 104.006 22.2633C103.183 21.4505 102.013 21.0442 100.501 21.0442C98.9886 21.0442 97.7597 21.4624 96.8972 22.3027C96.0307 23.1431 95.6014 24.3188 95.6014 25.8338C95.6014 27.3488 96.0189 28.4456 96.8578 29.282C97.6928 30.1223 98.8704 30.5405 100.383 30.5405C101.895 30.5405 103.085 30.1144 103.947 29.2623Z" fill="white"/>
<path d="M126.169 21.8807C127.531 23.5181 128.213 25.7984 128.213 28.718C128.213 31.6375 127.496 34.1546 126.066 35.859C124.633 37.5634 122.647 38.4156 120.111 38.4156C117.575 38.4156 115.79 37.5989 114.439 35.9616C113.089 34.3243 112.415 32.0597 112.415 29.1638C112.415 26.1062 113.124 23.7193 114.542 22.003C115.96 20.2868 117.937 19.4268 120.477 19.4268C123.018 19.4268 124.806 20.2434 126.169 21.8807ZM115.979 23.0367C114.928 24.39 114.4 26.2956 114.4 28.7574C114.4 31.3535 114.908 33.3498 115.92 34.7425C116.933 36.1352 118.358 36.8335 120.194 36.8335C122.029 36.8335 123.597 36.1628 124.648 34.8253C125.7 33.4879 126.228 31.5862 126.228 29.1243C126.228 26.5283 125.716 24.5241 124.688 23.1196C123.66 21.715 122.23 21.0088 120.395 21.0088C118.559 21.0088 117.031 21.6835 115.979 23.0367Z" fill="white"/>
<path d="M141.947 19.7502V21.7781L141.663 21.861C141.179 21.7781 140.746 21.7387 140.367 21.7387C139.45 21.7387 138.583 22.1253 137.776 22.8947C136.964 23.664 136.141 24.9186 135.306 26.6467V30.1383L135.428 38.1749H133.321L133.443 30.2606L133.361 19.8725L135.346 19.6279V23.7666H135.547C137.087 21.0325 138.867 19.6674 140.895 19.6674C141.218 19.6674 141.569 19.695 141.947 19.7502Z" fill="white"/>
<path d="M148.004 12.2421C148.232 12.4867 148.347 12.8102 148.347 13.2166C148.347 13.6506 148.224 13.9938 147.98 14.2503C147.736 14.5067 147.397 14.6369 146.968 14.6369C146.539 14.6369 146.204 14.5225 145.976 14.2937C145.747 14.0649 145.629 13.7334 145.629 13.2995C145.629 12.8655 145.751 12.5222 145.995 12.2658C146.239 12.0093 146.574 11.8792 147.007 11.8792C147.441 11.8792 147.771 12.0015 148 12.2461L148.004 12.2421ZM146.039 30.2604L145.999 19.8724L148.024 19.6278L147.984 30.1381L148.024 38.1747H145.956L146.039 30.2604Z" fill="white"/>
<path d="M163.416 35.6142L163.66 35.8154L163.459 37.2752C162.108 37.9775 160.895 38.3444 159.812 38.372C158.406 38.2102 157.366 37.7171 156.693 36.8925C156.019 36.0679 155.68 34.8843 155.68 33.3417L155.763 29.6884L155.724 21.2493H153.211L153.049 21.0481L153.211 19.7501H155.724V16.0573L157.508 15.3274L157.752 15.5286L157.713 19.7501H163.585L163.747 19.9513L163.585 21.2493H157.713L157.591 33.1405C157.591 34.3044 157.819 35.1645 158.28 35.7168C158.741 36.2731 159.442 36.5493 160.387 36.5493C161.332 36.5493 162.344 36.2376 163.424 35.6142H163.416Z" fill="white"/>
<path d="M193.109 30.1776L193.148 38.1709H191.041L191.202 25.388C191.202 24.09 190.879 23.084 190.229 22.3659C189.58 21.6479 188.65 21.2888 187.433 21.2888C186.46 21.2888 185.476 21.565 184.475 22.1213C183.475 22.6776 182.502 23.4667 181.557 24.4964V24.9817L181.517 30.1776L181.557 38.1709H179.45L179.611 25.388C179.611 24.09 179.288 23.084 178.638 22.3659C177.988 21.6479 177.059 21.2888 175.842 21.2888C173.924 21.2888 171.939 22.3975 169.887 24.6147V30.1342L169.969 38.1709H167.862L167.984 30.2565L167.902 19.8685L169.887 19.6239V22.5868H170.131C171.049 21.6952 171.994 20.9772 172.967 20.4367C173.94 19.8961 174.885 19.5726 175.802 19.4622C177.205 19.4622 178.366 19.7462 179.288 20.3143C180.206 20.8825 180.856 21.6952 181.234 22.7486H181.435C182.38 21.8293 183.372 21.0837 184.412 20.5156C185.452 19.9474 186.445 19.5963 187.39 19.4622C189.253 19.4622 190.678 19.9435 191.663 20.9022C192.648 21.8609 193.14 23.222 193.14 24.9817L193.101 30.1776H193.109Z" fill="white"/>
<path d="M214.885 29.6095L214.857 31.9175C214.877 34.0006 214.271 35.6143 213.042 36.7545C211.813 37.8947 210.048 38.4667 207.752 38.4667C205.456 38.4667 203.865 37.9144 202.707 36.8097C201.549 35.705 200.998 34.119 201.053 32.0556L201.08 29.5267L200.998 20.7207H204.688L204.499 31.5624C204.479 32.8841 204.763 33.8626 205.338 34.4978C205.917 35.133 206.795 35.4486 207.969 35.4486C210.32 35.4486 211.486 34.2176 211.466 31.7518L211.277 20.7207H215.023L214.889 29.6056L214.885 29.6095Z" fill="white"/>
<path d="M227.445 29.065L233.089 38.2221H228.666L227.851 36.4822L224.948 31.9451L221.801 36.6716L221.014 38.2221H217.217L222.806 29.5819L217.272 20.7246H221.695L222.51 22.4921L225.251 26.757L228.099 22.354L228.832 20.7246H232.739L227.449 29.069L227.445 29.065Z" fill="white"/>
<path d="M120.339 52.5125H121.501V55.1558C120.812 55.7161 119.847 56.0001 118.91 56.0001C116.858 56.0001 115.345 54.5719 115.345 52.5914C115.345 50.6108 116.858 49.1826 118.929 49.1826C120.036 49.1826 120.962 49.5535 121.584 50.2636L120.808 51.0211C120.288 50.5004 119.693 50.2636 118.984 50.2636C117.574 50.2636 116.582 51.2184 116.582 52.5914C116.582 53.9643 117.574 54.9191 118.973 54.9191C119.445 54.9191 119.91 54.8244 120.335 54.5798V52.5164L120.339 52.5125Z" fill="white"/>
<path d="M128.39 55.9013L127.039 53.9602C126.952 53.9681 126.87 53.9681 126.783 53.9681H125.29V55.9013H124.062V49.2732H126.783C128.524 49.2732 129.599 50.1648 129.599 51.6325C129.599 52.6346 129.087 53.3763 128.189 53.7235L129.709 55.9013H128.386H128.39ZM126.728 50.3148H125.29V52.9581H126.728C127.807 52.9581 128.362 52.465 128.362 51.6325C128.362 50.8 127.803 50.3148 126.728 50.3148Z" fill="white"/>
<path d="M131.442 52.5875C131.442 50.6266 132.955 49.1787 135.007 49.1787C137.059 49.1787 138.571 50.6187 138.571 52.5875C138.571 54.5562 137.059 55.9962 135.007 55.9962C132.955 55.9962 131.442 54.5483 131.442 52.5875ZM137.331 52.5875C137.331 51.2342 136.338 50.2597 135.003 50.2597C133.668 50.2597 132.679 51.2342 132.679 52.5875C132.679 53.9407 133.672 54.9152 135.003 54.9152C136.334 54.9152 137.331 53.9407 137.331 52.5875Z" fill="white"/>
<path d="M150.284 49.2732L148.09 55.9013H146.787L145.152 50.9973L143.49 55.9013H142.175L139.981 49.2732H141.257L142.903 54.3114L144.613 49.2732H145.747L147.421 54.339L149.115 49.2732H150.288H150.284Z" fill="white"/>
<path d="M153.621 50.3148H151.427V49.2732H157.043V50.3148H154.849V55.9013H153.621V50.3148Z" fill="white"/>
<path d="M164.794 49.2732V55.9013H163.566V53.0607H160.143V55.9013H158.914V49.2732H160.143V52.0112H163.566V49.2732H164.794Z" fill="white"/>
<path d="M177.149 55.9013L177.142 51.5062L174.968 55.1438H174.42L172.246 51.5654V55.9013H171.072V49.2732H172.084L174.712 53.6683L177.291 49.2732H178.303L178.311 55.9013H177.149Z" fill="white"/>
<path d="M185.334 54.3666H182.026L181.372 55.9013H180.104L183.081 49.2732H184.29L187.276 55.9013H185.992L185.33 54.3666H185.334ZM184.928 53.4L183.68 50.5041L182.443 53.4H184.928Z" fill="white"/>
<path d="M193.396 55.9013L192.045 53.9602C191.958 53.9681 191.876 53.9681 191.789 53.9681H190.296V55.9013H189.067V49.2732H191.789C193.53 49.2732 194.605 50.1648 194.605 51.6325C194.605 52.6346 194.093 53.3763 193.195 53.7235L194.715 55.9013H193.392H193.396ZM191.734 50.3148H190.296V52.9581H191.734C192.813 52.9581 193.368 52.465 193.368 51.6325C193.368 50.8 192.809 50.3148 191.734 50.3148Z" fill="white"/>
<path d="M199.201 53.128L198.15 54.209V55.9055H196.921V49.2773H198.15V52.6782L201.423 49.2773H202.801L200.021 52.2403L202.971 55.9055H201.533L199.197 53.1319L199.201 53.128Z" fill="white"/>
<path d="M209.721 54.8718V55.9055H204.759V49.2773H209.591V50.311H205.992V52.0351H209.186V53.0491H205.992V54.8758H209.725L209.721 54.8718Z" fill="white"/>
<path d="M213.376 50.3148H211.183V49.2732H216.799V50.3148H214.605V55.9013H213.376V50.3148Z" fill="white"/>
<path d="M218.67 49.2732H219.899V55.9013H218.67V49.2732Z" fill="white"/>
<path d="M228.513 49.2732V55.9013H227.5L223.853 51.4116V55.9013H222.632V49.2732H223.645L227.292 53.763V49.2732H228.513Z" fill="white"/>
<path d="M235.751 52.5125H236.913V55.1558C236.224 55.7161 235.259 56.0001 234.322 56.0001C232.27 56.0001 230.757 54.5719 230.757 52.5914C230.757 50.6108 232.27 49.1826 234.341 49.1826C235.448 49.1826 236.374 49.5535 236.996 50.2636L236.22 51.0211C235.7 50.5004 235.106 50.2636 234.397 50.2636C232.987 50.2636 231.994 51.2184 231.994 52.5914C231.994 53.9643 232.987 54.9191 234.385 54.9191C234.857 54.9191 235.322 54.8244 235.747 54.5798V52.5164L235.751 52.5125Z" fill="white"/>
</svg>
