<svg width="1112" height="1000" viewBox="0 0 1112 1000" fill="none" xmlns="http://www.w3.org/2000/svg">
<path d="M534.749 271.048C531.491 277.718 529.397 284.931 528.001 291.679C434.156 303.855 361.484 375.053 345.352 463.624C339.69 460.91 333.951 457.497 328.832 453.386C318.207 444.7 317.121 438.03 309.598 436.324C301.842 434.54 297.964 440.667 283.306 445.165C277.256 447.027 271.129 448.035 265.467 448.655C287.882 323.012 390.801 222.497 523.037 207.839C525.131 212.647 527.691 217.611 530.793 222.264C539.945 236.07 547.701 238.319 548.011 246.773C548.321 254.839 541.263 257.786 534.749 271.048Z" fill="#3D2981" class="dadosSvg"/>
<path d="M336.983 344.324C338.565 342.157 340.378 340.581 342.419 339.6C344.452 338.622 346.567 338.253 348.769 338.497C350.958 338.745 353.069 339.604 355.096 341.079C357.091 342.546 358.54 344.297 359.445 346.327C360.358 348.361 360.647 350.505 360.307 352.761C359.975 355.008 359.028 357.201 357.47 359.335L351.838 367.003L331.352 351.992L336.983 344.324ZM352.9 356.482C354.28 354.586 354.836 352.735 354.573 350.929C354.318 349.123 353.251 347.532 351.379 346.148C349.482 344.768 347.627 344.219 345.81 344.507C343.996 344.786 342.397 345.87 341.013 347.766L339.273 350.121L351.16 358.837L352.9 356.482Z" fill="#FBF5FF"/>
<path d="M374.071 332.027L367.734 339.076L370.062 343.208L365.727 348.044L352.971 324.233L357.751 318.905L382.798 329.028L378.431 333.897L374.071 332.027ZM369.449 330.032L360.419 326.167L365.273 334.687L369.449 330.032Z" fill="#FBF5FF"/>
<path d="M373.915 302.737C375.891 300.928 377.973 299.744 380.161 299.18C382.35 298.62 384.492 298.675 386.596 299.353C388.707 300.022 390.61 301.285 392.312 303.141C393.977 304.969 395.055 306.967 395.542 309.133C396.037 311.303 395.901 313.458 395.127 315.604C394.361 317.741 393.002 319.702 391.051 321.486L384.027 327.916L366.891 309.167L373.915 302.737ZM387.13 317.799C388.859 316.212 389.777 314.509 389.878 312.697C389.986 310.878 389.255 309.104 387.676 307.383C386.085 305.643 384.37 304.733 382.527 304.653C380.695 304.577 378.914 305.333 377.181 306.919L375.031 308.893L384.98 319.772L387.13 317.799Z" fill="#FBF5FF"/>
<path d="M412.454 304.08C410.537 305.5 408.442 306.365 406.176 306.668C403.918 306.962 401.724 306.658 399.601 305.754C397.477 304.851 395.677 303.4 394.199 301.396C392.725 299.415 391.867 297.28 391.625 294.989C391.374 292.698 391.723 290.511 392.668 288.427C393.605 286.344 395.031 284.592 396.948 283.172C398.865 281.752 400.952 280.895 403.21 280.601C405.467 280.306 407.646 280.619 409.753 281.531C411.856 282.435 413.644 283.877 415.122 285.858C416.596 287.862 417.466 290.006 417.729 292.297C417.991 294.587 417.654 296.77 416.718 298.841C415.789 300.916 414.37 302.66 412.454 304.08ZM409.085 299.544C410.714 298.334 411.615 296.829 411.793 295.025C411.966 293.212 411.396 291.411 410.075 289.622C408.73 287.834 407.169 286.759 405.386 286.4C403.611 286.04 401.913 286.467 400.284 287.677C398.635 288.899 397.721 290.412 397.544 292.212C397.358 294.005 397.94 295.806 399.294 297.614C400.64 299.427 402.188 300.506 403.951 300.853C405.722 301.205 407.432 300.766 409.085 299.544Z" fill="#FBF5FF"/>
<path d="M432.804 290.446C431.203 291.409 429.617 292.016 428.049 292.267C426.478 292.51 425.012 292.348 423.646 291.787C422.292 291.227 421.158 290.255 420.239 288.868L425.889 285.45C426.45 286.196 427.092 286.642 427.817 286.793C428.551 286.934 429.303 286.769 430.072 286.304C430.848 285.831 431.356 285.274 431.597 284.632C431.833 283.994 431.758 283.361 431.372 282.729C431.049 282.196 430.603 281.864 430.032 281.732C429.456 281.591 428.837 281.565 428.172 281.648C427.503 281.735 426.597 281.932 425.45 282.241C423.784 282.655 422.382 282.915 421.229 283.019C420.079 283.126 418.933 282.942 417.794 282.475C416.647 282.008 415.655 281.099 414.826 279.743C413.61 277.718 413.384 275.689 414.148 273.661C414.915 271.625 416.472 269.891 418.816 268.464C421.217 267.016 423.495 266.427 425.656 266.692C427.826 266.948 429.577 268.076 430.913 270.066L425.199 273.518C424.711 272.847 424.107 272.461 423.387 272.351C422.674 272.233 421.949 272.398 421.213 272.838C420.573 273.228 420.16 273.707 419.975 274.28C419.782 274.857 419.877 275.461 420.263 276.101C420.694 276.818 421.362 277.175 422.267 277.168C423.16 277.154 424.445 276.948 426.119 276.542C427.802 276.16 429.216 275.923 430.358 275.828C431.496 275.737 432.638 275.913 433.776 276.356C434.914 276.79 435.873 277.66 436.662 278.96C437.413 280.201 437.785 281.52 437.775 282.918C437.765 284.308 437.338 285.668 436.498 286.994C435.655 288.313 434.424 289.463 432.804 290.446Z" fill="#FBF5FF"/>
<path d="M821.17 373.269C817.059 377.302 812.871 382.033 809.304 387.462C800.695 400.492 801.548 408.481 794.335 411.505C787.432 414.453 782.391 408.791 768.663 407.085C761.373 406.154 754.005 406.619 747.412 407.705C709.874 331.776 627.74 282.76 537.23 290.67C534.128 290.903 531.026 291.291 528.001 291.679C529.397 284.854 531.491 277.641 534.748 271.048C541.263 257.786 548.243 254.839 548.011 246.773C547.701 238.319 539.945 236.07 530.793 222.265C527.691 217.533 525.131 212.647 523.037 207.839C525.286 207.606 527.613 207.373 529.94 207.141C655.661 196.128 769.749 265.852 821.17 373.269Z" fill="#3413A5"/>
<path d="M617.322 238.597L612.593 263.556L606.502 262.396L609.349 247.428L600.911 261.341L596.013 260.41L593.237 244.337L590.389 259.338L584.315 258.195L589.044 233.236L596.214 234.59L599.969 253.199L610.152 237.243L617.322 238.597Z" fill="#FBF5FF"/>
<path d="M626.929 268.313C624.645 267.588 622.716 266.395 621.15 264.735C619.591 263.087 618.555 261.136 618.04 258.886C617.533 256.64 617.657 254.323 618.405 251.942C619.152 249.586 620.377 247.638 622.081 246.1C623.794 244.555 625.764 243.555 627.993 243.104C630.23 242.646 632.491 242.777 634.774 243.499C637.046 244.213 638.963 245.401 640.521 247.061C642.088 248.726 643.12 250.672 643.615 252.91C644.118 255.148 643.998 257.449 643.251 259.805C642.504 262.185 641.27 264.15 639.557 265.695C637.853 267.24 635.886 268.241 633.662 268.691C631.445 269.15 629.2 269.027 626.929 268.313ZM628.643 262.926C630.573 263.537 632.321 263.386 633.886 262.473C635.46 261.552 636.582 260.026 637.253 257.903C637.919 255.772 637.872 253.881 637.113 252.229C636.363 250.581 635.023 249.45 633.093 248.838C631.131 248.218 629.367 248.361 627.802 249.274C626.237 250.18 625.114 251.706 624.435 253.861C623.756 256.008 623.796 257.899 624.558 259.535C625.317 261.174 626.681 262.306 628.643 262.926Z" fill="#FBF5FF"/>
<path d="M660.323 253.407C662.771 254.479 664.701 255.898 666.108 257.665C667.523 259.432 668.349 261.416 668.586 263.618C668.831 265.819 668.453 268.072 667.448 270.371C666.452 272.638 665.067 274.439 663.294 275.769C661.516 277.1 659.488 277.848 657.215 278.02C654.95 278.187 652.602 277.743 650.174 276.684L641.441 272.882L651.59 249.605L660.323 253.407ZM651.948 271.604C654.1 272.542 656.024 272.689 657.727 272.048C659.426 271.396 660.748 270.002 661.686 267.859C662.623 265.708 662.754 263.779 662.081 262.064C661.405 260.34 659.995 259.01 657.844 258.072L655.163 256.9L649.268 270.432L651.948 271.604Z" fill="#FBF5FF"/>
<path d="M679.724 268.274L677.263 272.778L684.539 276.751L682.245 280.95L674.969 276.976L672.309 281.864L680.53 286.353L678.152 290.712L664.498 283.264L676.668 260.972L690.323 268.42L687.945 272.763L679.724 268.274Z" fill="#FBF5FF"/>
<path d="M688.679 291.698L695.496 296.069L692.913 300.101L680.879 292.387L694.587 271.007L699.804 274.351L688.679 291.698Z" fill="#FBF5FF"/>
<path d="M709.905 307.212L702.382 301.441L698.448 304.079L693.305 300.122L716.07 285.572L721.74 289.925L713.573 315.687L708.382 311.697L709.905 307.212ZM711.546 302.454L714.71 293.162L706.578 298.645L711.546 302.454Z" fill="#FBF5FF"/>
<path d="M738.941 315.781C739.182 314.847 739.139 313.925 738.822 313.016C738.513 312.098 737.936 311.241 737.1 310.452C735.642 309.072 734.028 308.446 732.248 308.568C730.469 308.694 728.823 309.55 727.312 311.143C725.703 312.843 724.904 314.604 724.921 316.423C724.933 318.241 725.744 319.918 727.348 321.453C728.452 322.492 729.65 323.092 730.941 323.253C732.231 323.423 733.56 323.148 734.929 322.426L729.226 317.038L732.347 313.724L742.111 322.972L738.153 327.145C736.759 327.94 735.208 328.445 733.492 328.657C731.784 328.878 730.037 328.701 728.248 328.125C726.467 327.556 724.806 326.545 723.269 325.091C721.441 323.358 720.194 321.416 719.528 319.265C718.858 317.122 718.794 314.967 719.336 312.798C719.875 310.621 721.004 308.622 722.725 306.806C724.453 304.982 726.396 303.735 728.551 303.066C730.715 302.388 732.881 302.332 735.05 302.89C737.215 303.441 739.209 304.582 741.025 306.311C743.232 308.393 744.586 310.688 745.089 313.192C745.588 315.688 745.192 318.114 743.895 320.478L738.941 315.781Z" fill="#FBF5FF"/>
<path d="M753.208 326.397L749.342 329.796L754.806 336.02L751.219 339.181L745.755 332.957L741.562 336.641L747.74 343.669L744.022 346.941L733.745 335.261L752.812 318.489L763.089 330.168L759.387 333.424L753.208 326.397Z" fill="#FBF5FF"/>
<path d="M783.438 357.634L762.77 372.395L759.178 367.363L771.579 358.503L755.872 362.739L752.977 358.671L762.088 345.139L749.655 354.014L746.047 348.982L766.715 334.221L770.971 340.169L760.82 356.189L779.214 351.704L783.438 357.634Z" fill="#FBF5FF"/>
<path d="M760.054 712.352C755.556 709.87 750.515 707.543 745.241 705.759C729.807 700.641 722.284 703.588 717.087 697.306C712.046 691.178 715.924 684.664 713.209 670.471C711.813 663.025 709.021 655.89 705.919 649.53C749.196 607.028 773.782 546.611 768.12 481.928C765.794 455.325 758.581 430.352 747.412 407.705C754.082 406.619 761.373 406.154 768.663 407.085C782.391 408.791 787.432 414.375 794.335 411.505C801.47 408.481 800.695 400.492 809.304 387.462C812.871 382.033 817.059 377.302 821.17 373.269C836.061 404.37 845.678 438.573 848.858 474.948C856.924 567.009 821.713 652.787 760.054 712.352Z" fill="#614BAF"/>
<path d="M763.127 636.327L767.442 639.107L771.917 632.129L775.944 634.713L771.468 641.69L776.168 644.702L781.236 636.81L785.406 639.492L776.998 652.58L755.632 638.858L764.04 625.769L768.195 628.435L763.127 636.327Z" fill="#FBF5FF"/>
<path d="M795.274 621.424L785.987 622.383L790.747 630.033L787.492 636.249L779.823 623.024L764.923 624.597L768.26 618.22L777.417 617.276L772.721 609.74L775.992 603.508L783.549 616.603L798.627 615.031L795.274 621.424Z" fill="#FBF5FF"/>
<path d="M783.732 597.607L788.46 599.585L791.65 591.946L796.073 593.79L792.882 601.429L798.012 603.589L801.634 594.953L806.218 596.864L800.203 611.209L776.772 601.405L782.787 587.061L787.354 588.972L783.732 597.607Z" fill="#FBF5FF"/>
<path d="M795.645 589.314C793.254 588.556 791.284 587.365 789.739 585.74C788.187 584.106 787.178 582.2 786.719 580.017C786.251 577.838 786.39 575.57 787.136 573.219C788.042 570.345 789.578 568.125 791.737 566.566C793.901 564.999 796.41 564.277 799.26 564.406L797.214 570.911C796.04 571.071 795.05 571.512 794.242 572.234C793.425 572.948 792.841 573.866 792.481 574.993C791.91 576.809 792.085 578.479 793.005 580.009C793.916 581.538 795.431 582.638 797.556 583.309C799.673 583.972 801.536 583.936 803.148 583.212C804.764 582.487 805.853 581.219 806.424 579.404C806.784 578.277 806.837 577.191 806.59 576.141C806.344 575.084 805.789 574.153 804.926 573.343L806.972 566.838C809.379 568.365 811.012 570.387 811.879 572.906C812.743 575.429 812.724 578.127 811.819 581.001C811.068 583.351 809.879 585.289 808.245 586.809C806.612 588.334 804.702 589.317 802.507 589.765C800.316 590.216 798.028 590.065 795.645 589.314Z" fill="#FBF5FF"/>
<path d="M792.786 553.512L807.666 556.575C809.149 556.883 810.374 556.76 811.338 556.198C812.294 555.627 812.916 554.64 813.198 553.23C813.498 551.803 813.321 550.629 812.673 549.717C812.03 548.797 810.962 548.178 809.479 547.87L794.599 544.807L795.849 538.745L810.696 541.809C812.921 542.267 814.7 543.127 816.031 544.391C817.362 545.646 818.253 547.155 818.71 548.914C819.175 550.664 819.202 552.519 818.791 554.474C818.389 556.44 817.642 558.124 816.552 559.522C815.461 560.911 814.048 561.892 812.317 562.462C810.589 563.036 808.609 563.094 806.384 562.636L791.537 559.573L792.786 553.512Z" fill="#FBF5FF"/>
<path d="M817.374 526.253C817.497 525.083 817.331 524.006 816.878 523.032C816.429 522.049 815.695 521.253 814.676 520.647L815.368 513.868C817.729 514.76 819.583 516.163 820.926 518.085C822.27 520.007 822.983 522.241 823.063 524.783L824.483 524.929C824.603 523.682 825.051 522.625 825.829 521.761C826.614 520.898 827.689 520.534 829.057 520.667C830.421 520.812 831.407 521.417 832.009 522.479C832.619 523.532 832.86 524.747 832.727 526.123L832.162 531.675L828.756 531.329L829.231 526.6C829.277 526.115 829.245 525.743 829.131 525.483C829.013 525.224 828.788 525.075 828.457 525.039C828.122 525.015 827.875 525.113 827.71 525.338C827.554 525.562 827.453 525.917 827.407 526.401L827.152 528.951L822.681 528.496C822.224 530.635 821.342 532.479 820.032 534.024C818.721 535.56 817.101 536.689 815.161 537.41C813.214 538.13 811.106 538.377 808.835 538.145C806.341 537.89 804.169 537.121 802.317 535.84C800.469 534.558 799.099 532.902 798.205 530.864C797.303 528.83 796.978 526.584 797.232 524.131C797.538 521.129 798.588 518.644 800.388 516.669C802.189 514.686 804.497 513.477 807.314 513.032L806.622 519.811C805.518 520.219 804.647 520.855 803.998 521.72C803.342 522.577 802.955 523.59 802.832 524.761C802.641 526.665 803.143 528.271 804.344 529.577C805.549 530.884 807.257 531.655 809.472 531.882C811.679 532.114 813.498 531.71 814.932 530.669C816.366 529.631 817.183 528.158 817.374 526.253Z" fill="#FBF5FF"/>
<path d="M819.67 493.911L819.706 503.397L824.197 504.903L824.203 511.383L798.777 502.251L798.763 495.093L824.142 485.835L824.163 492.38L819.67 493.911ZM814.917 495.521L805.605 498.694L814.925 501.775L814.917 495.521ZM797.022 505.932C793.441 505.353 791.647 503.688 791.634 500.941C791.64 500.404 791.722 499.936 791.876 499.538C792.034 499.144 792.27 498.662 792.588 498.092C792.819 497.642 792.993 497.289 793.101 497.031C793.213 496.766 793.265 496.484 793.256 496.193C793.258 495.3 792.715 494.781 791.625 494.639L791.614 491.456C795.194 492.038 796.985 493.699 796.986 496.446C796.992 496.975 796.918 497.439 796.76 497.833C796.606 498.231 796.374 498.725 796.064 499.312C795.813 499.741 795.635 500.09 795.535 500.356C795.427 500.613 795.375 500.887 795.38 501.178C795.382 502.075 795.925 502.606 797.01 502.78L797.022 505.932Z" fill="#FBF5FF"/>
<path d="M822.83 469.82C823.093 472.207 822.784 474.449 821.896 476.548C820.999 478.65 819.63 480.392 817.78 481.768C815.922 483.149 813.759 483.972 811.288 484.247C808.82 484.509 806.538 484.164 804.448 483.214C802.35 482.265 800.641 480.86 799.326 479.003C798.002 477.145 797.206 475.027 796.943 472.641C796.691 470.279 797.012 468.049 797.909 465.946C798.797 463.848 800.162 462.118 802.008 460.758C803.846 459.401 806 458.59 808.467 458.327C810.939 458.057 813.229 458.39 815.339 459.328C817.441 460.269 819.154 461.662 820.478 463.507C821.794 465.356 822.578 467.458 822.83 469.82ZM817.199 470.434C816.988 468.428 816.141 466.895 814.667 465.832C813.192 464.761 811.355 464.348 809.155 464.589C806.922 464.834 805.208 465.634 804.005 466.986C802.805 468.341 802.313 470.02 802.525 472.026C802.752 474.077 803.59 475.638 805.04 476.709C806.494 477.772 808.348 478.181 810.601 477.937C812.834 477.696 814.552 476.895 815.751 475.54C816.942 474.188 817.426 472.485 817.199 470.434Z" fill="#FBF5FF"/>
<path d="M760.054 712.352C713.209 757.645 651.008 787.815 581.05 793.865C510.085 800.069 442.842 780.525 388.396 742.987C390.103 738.178 391.654 732.982 392.507 727.475C395.144 711.654 391.033 704.673 396.385 698.701C401.581 692.885 408.639 695.754 422.134 691.178C429.968 688.464 437.18 684.276 443.308 679.932C481.001 702.89 526.217 714.446 573.76 710.335C625.646 705.837 671.638 683.345 705.919 649.607C709.021 655.89 711.736 663.102 713.209 670.548C715.924 684.741 712.046 691.333 717.087 697.383C722.284 703.743 729.807 700.718 745.241 705.837C750.592 707.621 755.556 709.947 760.054 712.352Z" fill="#805BFF"/>
<path d="M469.462 756.697L467.277 745.972L465.864 745.525L463.004 754.681L457.093 752.838L464.672 728.598L474.599 731.698C476.503 732.297 478.03 733.138 479.172 734.227C480.315 735.307 481.035 736.537 481.331 737.921C481.636 739.296 481.573 740.697 481.137 742.119C480.629 743.725 479.724 745.025 478.412 746.01C477.108 746.986 475.483 747.464 473.536 747.435L476.129 758.781L469.462 756.697ZM467.173 741.348L470.836 742.486C471.916 742.83 472.809 742.827 473.519 742.473C474.224 742.111 474.726 741.442 475.028 740.466C475.312 739.558 475.271 738.753 474.897 738.055C474.522 737.349 473.793 736.822 472.713 736.478L469.05 735.34L467.173 741.348Z" fill="#FBF5FF"/>
<path d="M491.194 741.337L490.031 746.341L498.107 748.21L497.031 752.876L488.955 751.007L487.686 756.445L496.808 758.56L495.697 763.387L480.541 759.878L486.271 735.134L501.427 738.642L500.316 743.453L491.194 741.337Z" fill="#FBF5FF"/>
<path d="M509.536 766.005C507.687 765.719 506.082 765.167 504.72 764.344C503.366 763.522 502.34 762.456 501.646 761.15C500.961 759.844 500.718 758.368 500.924 756.724L507.434 757.722C507.383 758.671 507.594 759.434 508.068 760.013C508.542 760.596 509.222 760.953 510.116 761.087C511.018 761.226 511.764 761.119 512.352 760.775C512.941 760.431 513.29 759.896 513.401 759.163C513.498 758.551 513.367 758.011 513.013 757.539C512.666 757.072 512.209 756.659 511.647 756.301C511.08 755.934 510.26 755.498 509.183 754.993C507.634 754.244 506.387 753.541 505.442 752.884C504.493 752.219 503.731 751.344 503.15 750.254C502.565 749.156 502.393 747.815 502.629 746.236C502.997 743.908 504.129 742.209 506.024 741.146C507.92 740.084 510.225 739.765 512.944 740.181C515.715 740.614 517.845 741.625 519.333 743.213C520.822 744.806 521.438 746.789 521.19 749.164L514.568 748.147C514.636 747.32 514.435 746.634 513.961 746.083C513.487 745.537 512.823 745.201 511.977 745.075C511.235 744.956 510.603 745.057 510.08 745.378C509.564 745.703 509.255 746.231 509.144 746.96C509.019 747.79 509.301 748.49 509.993 749.061C510.681 749.624 511.803 750.292 513.364 751.065C514.888 751.863 516.118 752.589 517.055 753.254C517.987 753.91 518.747 754.773 519.332 755.851C519.925 756.921 520.103 758.201 519.872 759.692C519.65 761.122 519.085 762.367 518.184 763.425C517.278 764.482 516.08 765.251 514.584 765.731C513.096 766.207 511.413 766.3 509.536 766.005Z" fill="#FBF5FF"/>
<path d="M531.303 742.83L530.235 757.985C530.129 759.502 530.417 760.699 531.103 761.573C531.798 762.439 532.863 762.924 534.307 763.025C535.76 763.129 536.897 762.8 537.72 762.04C538.551 761.272 539.022 760.126 539.128 758.609L540.196 743.454L546.361 743.897L545.293 759.019C545.14 761.29 544.526 763.173 543.455 764.672C542.38 766.162 541.001 767.242 539.32 767.921C537.646 768.6 535.811 768.871 533.809 768.736C531.808 768.588 530.045 768.069 528.522 767.179C527.009 766.277 525.849 765.011 525.04 763.379C524.24 761.747 523.918 759.798 524.071 757.526L525.138 742.404L531.303 742.83Z" fill="#FBF5FF"/>
<path d="M555.976 764.443L564.09 764.406L564.11 769.19L549.807 769.253L549.699 743.846L555.889 743.82L555.976 764.443Z" fill="#FBF5FF"/>
<path d="M584.251 742.413L584.609 747.333L577.876 747.817L579.357 768.224L573.191 768.671L571.71 748.263L565.01 748.748L564.653 743.828L584.251 742.413Z" fill="#FBF5FF"/>
<path d="M605.089 760.425L595.719 761.892L594.918 766.579L588.515 767.587L593.649 741.053L600.717 739.945L613.754 763.598L607.286 764.62L605.089 760.425ZM602.767 755.968L598.2 747.266L596.591 756.931L602.767 755.968Z" fill="#FBF5FF"/>
<path d="M620.502 735.768C623.1 735.107 625.497 735.048 627.697 735.584C629.893 736.111 631.759 737.173 633.292 738.762C634.833 740.356 635.909 742.364 636.521 744.788C637.129 747.191 637.146 749.466 636.567 751.609C635.984 753.755 634.846 755.591 633.148 757.118C631.458 758.649 629.332 759.739 626.766 760.389L617.541 762.732L611.277 738.111L620.502 735.768ZM625.054 755.281C627.328 754.711 628.936 753.643 629.883 752.078C630.827 750.512 631.009 748.6 630.431 746.335C629.86 744.061 628.78 742.465 627.194 741.537C625.616 740.602 623.693 740.419 621.419 740.989L618.577 741.71L622.212 756.002L625.054 755.281Z" fill="#FBF5FF"/>
<path d="M655.478 751.926C653.233 752.735 650.982 752.954 648.727 752.588C646.471 752.213 644.453 751.289 642.671 749.82C640.902 748.344 639.597 746.432 638.758 744.088C637.922 741.757 637.716 739.458 638.147 737.192C638.579 734.93 639.547 732.937 641.042 731.22C642.538 729.504 644.413 728.243 646.659 727.434C648.892 726.628 651.139 726.413 653.394 726.788C655.65 727.155 657.652 728.078 659.401 729.554C661.15 731.035 662.443 732.938 663.282 735.269C664.118 737.613 664.328 739.92 663.909 742.182C663.497 744.437 662.55 746.422 661.062 748.139C659.575 749.856 657.712 751.121 655.478 751.926ZM653.561 746.604C655.469 745.922 656.765 744.739 657.443 743.059C658.131 741.372 658.102 739.484 657.359 737.401C656.599 735.298 655.424 733.821 653.824 732.97C652.225 732.111 650.469 732.024 648.561 732.707C646.628 733.405 645.313 734.583 644.614 736.25C643.911 737.918 643.947 739.817 644.714 741.941C645.481 744.057 646.665 745.542 648.264 746.389C649.864 747.228 651.628 747.302 653.561 746.604Z" fill="#FBF5FF"/>
<path d="M443.308 679.933C437.18 684.276 429.968 688.542 422.134 691.179C408.639 695.754 401.659 692.885 396.385 698.702C390.956 704.751 395.067 711.654 392.507 727.476C391.576 732.982 390.103 738.178 388.396 742.987C318.594 694.824 270.043 617.111 262.132 525.981C259.805 499.456 261.124 473.474 265.545 448.5C271.206 447.88 277.411 446.872 283.383 445.01C298.042 440.512 301.842 434.462 309.675 436.169C317.198 437.875 318.284 444.545 328.91 453.231C334.028 457.342 339.768 460.755 345.429 463.469C342.172 481.385 341.241 499.921 342.87 518.845C348.842 588.027 387.931 646.273 443.308 679.933Z" fill="#A389FF"/>
<path d="M308.707 527.439L303.613 528.12L304.691 536.346L299.954 536.973L298.875 528.747L293.343 529.465L294.569 538.761L289.653 539.415L287.613 523.986L312.793 520.667L314.833 536.097L309.934 536.735L308.707 527.439Z" fill="#FBF5FF"/>
<path d="M292.035 553.289C291.653 551.468 291.608 549.774 291.902 548.21C292.193 546.642 292.828 545.31 293.809 544.206C294.798 543.103 296.1 542.355 297.719 541.972L299.057 548.427C298.164 548.713 297.525 549.176 297.143 549.812C296.77 550.456 296.675 551.221 296.869 552.1C297.046 552.998 297.399 553.658 297.929 554.085C298.454 554.52 299.08 554.659 299.808 554.51C300.426 554.385 300.891 554.075 301.208 553.579C301.521 553.079 301.743 552.499 301.871 551.836C302.007 551.181 302.125 550.263 302.223 549.081C302.388 547.381 302.617 545.973 302.908 544.849C303.197 543.734 303.747 542.711 304.562 541.776C305.384 540.842 306.578 540.212 308.138 539.888C310.447 539.416 312.426 539.887 314.08 541.3C315.742 542.704 316.852 544.747 317.415 547.438C317.985 550.178 317.782 552.524 316.814 554.469C315.854 556.414 314.218 557.686 311.906 558.292L310.538 551.739C311.34 551.511 311.914 551.083 312.255 550.446C312.596 549.809 312.682 549.068 312.512 548.222C312.359 547.483 312.039 546.932 311.556 546.563C311.069 546.194 310.462 546.084 309.738 546.237C308.925 546.408 308.37 546.918 308.079 547.775C307.796 548.628 307.558 549.91 307.373 551.618C307.163 553.334 306.914 554.745 306.624 555.848C306.335 556.948 305.793 557.967 305.003 558.906C304.209 559.842 303.068 560.461 301.572 560.766C300.162 561.058 298.802 560.967 297.49 560.49C296.187 560.009 295.047 559.153 294.071 557.921C293.103 556.698 292.423 555.151 292.035 553.289Z" fill="#FBF5FF"/>
<path d="M307.166 562.323C309.566 561.606 311.869 561.485 314.078 561.967C316.283 562.441 318.183 563.448 319.78 564.988C321.386 566.528 322.543 568.48 323.253 570.84C324.118 573.729 324.099 576.428 323.188 578.936C322.285 581.453 320.62 583.455 318.186 584.938L316.235 578.418C317.106 577.622 317.678 576.701 317.946 575.653C318.209 574.614 318.171 573.526 317.827 572.385C317.284 570.559 316.209 569.268 314.606 568.512C312.998 567.764 311.125 567.711 308.985 568.355C306.854 568.994 305.324 570.066 304.401 571.572C303.474 573.086 303.281 574.757 303.824 576.583C304.168 577.724 304.74 578.653 305.54 579.379C306.336 580.113 307.321 580.568 308.492 580.755L310.443 587.275C307.595 587.365 305.103 586.612 302.974 585.013C300.853 583.41 299.356 581.165 298.491 578.276C297.781 575.916 297.671 573.65 298.164 571.478C298.654 569.301 299.677 567.415 301.233 565.81C302.797 564.205 304.774 563.044 307.166 562.323Z" fill="#FBF5FF"/>
<path d="M313.933 607.345L310.348 598.564L305.62 598.852L303.186 592.851L330.178 591.782L332.869 598.404L312.819 616.511L310.338 610.444L313.933 607.345ZM317.742 604.073L325.18 597.638L315.383 598.269L317.742 604.073Z" fill="#FBF5FF"/>
<path d="M321.601 623.159L325.244 630.422L320.965 632.565L314.567 619.777L337.289 608.42L340.044 613.945L321.601 623.159Z" fill="#FBF5FF"/>
<path d="M334.7 647.25L329.82 639.112L325.185 640.13L321.849 634.573L348.358 629.384L352.033 635.516L335.007 656.472L331.64 650.866L334.7 647.25ZM337.975 643.43L344.328 635.93L334.747 638.054L337.975 643.43Z" fill="#FBF5FF"/>
<path d="M595.669 328.599C594.734 335.536 589.434 337.172 583.12 347.617C578.677 355.021 575.638 363.673 573.533 371.077C555.995 368.895 537.99 370.22 520.609 375.286C506.189 379.417 492.237 386.12 479.376 395.473C441.495 422.908 422.32 466.477 424.659 509.501C425.672 528.596 430.894 547.692 440.559 565.151C433.466 566.242 425.438 566.944 417.721 566.008C405.016 564.605 400.885 559.929 394.182 562.345C387.167 564.839 387.167 571.386 377.814 582.064C373.371 587.13 368.305 591.495 363.472 595.003C318.342 503.188 344.531 389.549 430.115 327.43C476.024 294.149 530.663 281.756 582.808 288.381C583.666 293.915 584.913 299.994 587.017 305.84C591.46 318.622 596.605 321.428 595.669 328.599Z" fill="#56003C"/>
<path d="M383.022 471.889C384.485 472.026 385.789 472.492 386.933 473.28C388.082 474.071 388.966 475.197 389.583 476.657C390.193 478.122 390.402 479.888 390.206 481.956L389.844 485.764L398.916 486.625L398.346 492.786L373.062 490.398L373.993 480.429C374.192 478.402 374.705 476.729 375.534 475.403C376.355 474.082 377.41 473.13 378.699 472.543C379.992 471.961 381.433 471.743 383.022 471.889ZM385.261 481.965C385.381 480.779 385.191 479.871 384.692 479.24C384.186 478.614 383.434 478.251 382.428 478.149C381.416 478.064 380.607 478.281 380.002 478.806C379.398 479.335 379.04 480.192 378.921 481.378L378.601 484.712L384.941 485.3L385.261 481.965Z" fill="#FBF5FF"/>
<path d="M403.458 459.272L392.89 462.217L392.558 463.672L401.904 465.872L400.479 471.893L375.75 466.07L378.128 455.948C378.594 454.007 379.325 452.434 380.326 451.223C381.327 450.004 382.503 449.192 383.851 448.787C385.204 448.382 386.604 448.354 388.059 448.694C389.693 449.088 391.054 449.898 392.138 451.125C393.214 452.356 393.81 453.944 393.916 455.889L405.046 452.491L403.458 459.272ZM388.307 462.666L389.177 458.929C389.441 457.828 389.374 456.934 388.969 456.255C388.555 455.576 387.853 455.124 386.86 454.891C385.933 454.669 385.139 454.768 384.469 455.189C383.791 455.615 383.32 456.38 383.056 457.48L382.186 461.218L388.307 462.666Z" fill="#FBF5FF"/>
<path d="M410.279 439.599C409.371 441.816 408.032 443.638 406.262 445.06C404.489 446.485 402.463 447.369 400.177 447.71C397.882 448.045 395.582 447.739 393.274 446.797C390.983 445.867 389.136 444.485 387.738 442.657C386.344 440.828 385.508 438.786 385.23 436.527C384.954 434.26 385.269 432.016 386.174 429.8C387.07 427.584 388.406 425.77 390.176 424.357C391.95 422.935 393.972 422.06 396.248 421.74C398.516 421.42 400.795 421.727 403.086 422.658C405.391 423.6 407.246 424.981 408.655 426.796C410.072 428.615 410.916 430.652 411.194 432.907C411.479 435.153 411.172 437.384 410.279 439.599ZM405.042 437.476C405.801 435.597 405.783 433.839 404.989 432.195C404.19 430.555 402.769 429.316 400.721 428.483C398.64 427.644 396.75 427.535 395.052 428.164C393.353 428.784 392.123 430.031 391.361 431.911C390.58 433.816 390.578 435.584 391.351 437.214C392.128 438.835 393.565 440.072 395.667 440.922C397.75 441.777 399.64 441.894 401.34 441.273C403.03 440.645 404.262 439.382 405.042 437.476Z" fill="#FBF5FF"/>
<path d="M399.085 404.761C400.482 402.471 402.154 400.754 404.101 399.606C406.047 398.449 408.125 397.902 410.336 397.964C412.546 398.03 414.72 398.715 416.865 400.027C418.971 401.31 420.562 402.928 421.633 404.881C422.713 406.825 423.181 408.93 423.039 411.2C422.893 413.474 422.131 415.743 420.756 418.007L415.794 426.125L394.123 412.879L399.085 404.761ZM415.962 415.555C417.188 413.551 417.597 411.664 417.189 409.891C416.78 408.109 415.577 406.613 413.585 405.393C411.581 404.167 409.688 403.77 407.907 404.199C406.12 404.633 404.608 405.85 403.382 407.854L401.856 410.349L414.436 418.05L415.962 415.555Z" fill="#FBF5FF"/>
<path d="M413.326 384.26L424.915 394.07C426.08 395.055 427.214 395.528 428.326 395.487C429.446 395.45 430.472 394.877 431.409 393.769C432.342 392.665 432.739 391.558 432.605 390.442C432.478 389.318 431.831 388.265 430.67 387.281L419.081 377.47L423.078 372.74L434.649 382.52C436.382 383.996 437.539 385.614 438.12 387.369C438.696 389.117 438.762 390.866 438.317 392.622C437.868 394.371 436.995 396.005 435.696 397.528C434.406 399.063 432.952 400.186 431.325 400.894C429.705 401.594 427.999 401.785 426.201 401.47C424.402 401.147 422.636 400.245 420.899 398.769L409.329 388.989L413.326 384.26Z" fill="#FBF5FF"/>
<path d="M441.195 356.16L444.488 359.856L439.466 364.347L453.1 379.597L448.483 383.713L434.849 368.464L429.842 372.953L426.549 369.257L441.195 356.16Z" fill="#FBF5FF"/>
<path d="M469.363 367.73C467.366 369.045 465.227 369.787 462.951 369.954C460.67 370.113 458.502 369.686 456.438 368.668C454.366 367.642 452.639 366.092 451.264 364.01C449.915 361.942 449.184 359.754 449.076 357.448C448.96 355.148 449.432 352.988 450.495 350.973C451.55 348.951 453.072 347.283 455.07 345.969C457.056 344.659 459.182 343.917 461.45 343.747C463.727 343.581 465.887 344.016 467.932 345.052C469.984 346.08 471.687 347.632 473.04 349.699C474.415 351.781 475.166 353.972 475.294 356.272C475.421 358.563 474.958 360.722 473.907 362.744C472.864 364.757 471.349 366.42 469.363 367.73ZM466.26 363.012C467.95 361.898 468.931 360.445 469.202 358.647C469.48 356.84 469.01 355.011 467.785 353.156C466.557 351.28 465.066 350.12 463.309 349.672C461.552 349.215 459.828 349.542 458.138 350.657C456.417 351.786 455.416 353.244 455.132 355.027C454.839 356.803 455.313 358.64 456.551 360.535C457.787 362.421 459.287 363.589 461.043 364.033C462.8 364.482 464.539 364.142 466.26 363.012Z" fill="#FBF5FF"/>
<path d="M738.119 612.807C731.794 610.781 723.907 608.91 715.708 608.521C702.199 607.897 697.045 611.95 691.266 608.131C685.722 604.468 687.05 598.467 681.193 587.867C677.211 580.697 671.667 574.462 666.435 569.474C694.312 525.44 694.468 467.611 662.296 423.343C640.353 393.181 607.713 375.256 573.12 370.969C575.15 363.565 578.196 354.914 582.725 347.51C589.05 337.067 594.36 335.43 595.297 328.494C596.234 321.324 591.08 318.518 586.551 305.736C584.443 299.891 583.193 293.812 582.334 288.279C639.026 295.449 692.828 325.143 728.983 375.022C781.379 447.269 782.082 541.183 738.119 612.807Z" fill="#8A0261"/>
<path d="M651.198 375.051L652.639 364.179L651.446 363.304L645.754 371.039L640.764 367.369L655.819 346.91L664.197 353.067C665.805 354.258 666.972 355.552 667.69 356.948C668.416 358.337 668.697 359.736 668.533 361.14C668.378 362.536 667.859 363.841 666.979 365.053C665.985 366.402 664.705 367.327 663.143 367.836C661.59 368.341 659.899 368.258 658.075 367.592L656.831 379.184L651.198 375.051ZM654.035 359.79L657.126 362.054C658.036 362.73 658.885 363.013 659.678 362.904C660.468 362.788 661.162 362.319 661.758 361.503C662.328 360.731 662.551 359.952 662.422 359.17C662.293 358.388 661.773 357.663 660.864 356.986L657.772 354.722L654.035 359.79Z" fill="#FBF5FF"/>
<path d="M676.992 370.224L673.44 373.941L679.427 379.657L676.113 383.109L670.126 377.392L666.287 381.42L673.067 387.881L669.634 391.474L658.375 380.734L675.929 362.368L687.189 373.108L683.772 376.685L676.992 370.224Z" fill="#FBF5FF"/>
<path d="M696.999 397.473C695.861 398.404 694.599 398.994 693.222 399.24C691.853 399.482 690.438 399.301 688.976 398.69C687.513 398.079 686.125 396.962 684.814 395.347L682.399 392.383L675.333 398.136L671.427 393.332L691.131 377.304L697.453 385.072C698.733 386.658 699.541 388.212 699.878 389.734C700.223 391.249 700.136 392.664 699.62 393.977C699.112 395.302 698.238 396.466 696.999 397.473ZM688.354 391.888C689.101 392.801 689.872 393.31 690.668 393.408C691.46 393.514 692.248 393.248 693.031 392.601C693.821 391.967 694.251 391.254 694.317 390.456C694.383 389.65 694.039 388.791 693.293 387.874L691.17 385.262L686.232 389.277L688.354 391.888Z" fill="#FBF5FF"/>
<path d="M709.475 401.792L696.453 409.608C695.147 410.383 694.332 411.303 694.009 412.369C693.681 413.43 693.892 414.583 694.641 415.824C695.385 417.072 696.308 417.818 697.41 418.058C698.519 418.298 699.727 418.029 701.033 417.255L714.055 409.439L717.229 414.747L704.241 422.548C702.283 423.716 700.384 424.283 698.542 424.251C696.707 424.226 695.03 423.724 693.51 422.746C691.999 421.766 690.729 420.415 689.702 418.69C688.674 416.973 688.087 415.234 687.947 413.474C687.802 411.709 688.172 410.026 689.047 408.426C689.93 406.837 691.354 405.457 693.312 404.286L706.301 396.484L709.475 401.792Z" fill="#FBF5FF"/>
<path d="M727.092 437.251L722.532 439.179L719.896 432.972L701.062 440.95L698.648 435.253L717.482 427.276L714.862 421.085L719.423 419.157L727.092 437.251Z" fill="#FBF5FF"/>
<path d="M712.644 462.675L710.23 453.502L705.489 453.174L703.843 446.912L730.749 449.33L732.578 456.248L710.362 471.62L708.686 465.292L712.644 462.675ZM716.835 459.924L725.035 454.493L715.244 453.873L716.835 459.924Z" fill="#FBF5FF"/>
<path d="M716.964 483.666C717.077 484.843 717.455 485.862 718.098 486.722C718.741 487.589 719.612 488.228 720.719 488.642L721.39 495.414C718.884 494.994 716.784 493.976 715.097 492.353C713.406 490.738 712.266 488.697 711.682 486.227L710.27 486.362C710.388 487.596 710.155 488.71 709.564 489.712C708.972 490.723 707.993 491.296 706.629 491.433C705.265 491.57 704.182 491.173 703.38 490.246C702.569 489.327 702.091 488.187 701.954 486.823L701.426 481.27L704.82 480.943L705.269 485.668C705.326 486.155 705.436 486.508 705.597 486.733C705.761 486.954 706.012 487.049 706.345 487.023C706.682 486.98 706.91 486.836 707.026 486.582C707.133 486.336 707.161 485.973 707.104 485.486L706.855 482.936L711.32 482.508C711.347 480.318 711.85 478.342 712.83 476.572C713.818 474.802 715.188 473.363 716.94 472.264C718.7 471.173 720.716 470.522 722.989 470.301C725.49 470.062 727.773 470.384 729.838 471.267C731.911 472.162 733.585 473.518 734.859 475.342C736.141 477.174 736.9 479.317 737.145 481.777C737.428 484.772 736.881 487.414 735.504 489.697C734.135 491.989 732.113 493.631 729.444 494.619L728.773 487.847C729.789 487.243 730.53 486.449 730.991 485.466C731.453 484.49 731.627 483.414 731.514 482.237C731.323 480.329 730.512 478.855 729.079 477.817C727.643 476.775 725.817 476.363 723.6 476.585C721.392 476.792 719.683 477.546 718.476 478.845C717.277 480.154 716.773 481.758 716.964 483.666Z" fill="#FBF5FF"/>
<path d="M716.141 514.297L716.747 504.829L712.359 503.029L712.775 496.561L737.551 507.365L737.091 514.51L711.142 522.061L711.561 515.528L716.141 514.297ZM720.997 513.012L730.5 510.466L721.404 506.77L720.997 513.012ZM739.56 503.81C743.071 504.624 744.743 506.404 744.576 509.146C744.542 509.683 744.429 510.143 744.244 510.523C744.066 510.912 743.795 511.386 743.44 511.945C743.172 512.362 742.98 512.702 742.864 512.956C742.744 513.218 742.672 513.498 742.652 513.788C742.59 514.679 743.097 515.23 744.168 515.436L743.97 518.614C740.447 517.795 738.774 516.019 738.954 513.278C738.984 512.749 739.092 512.289 739.27 511.9C739.447 511.519 739.71 511.049 740.056 510.494C740.333 510.073 740.529 509.737 740.648 509.483C740.776 509.23 740.852 508.958 740.877 508.668C740.934 507.773 740.424 507.202 739.347 506.955L739.56 503.81Z" fill="#FBF5FF"/>
<path d="M707.973 534.628C708.515 532.298 709.553 530.287 711.088 528.597C712.614 526.902 714.475 525.714 716.67 525.03C718.874 524.346 721.19 524.281 723.616 524.835C726.027 525.397 728.068 526.468 729.741 528.05C731.409 529.64 732.559 531.532 733.191 533.726C733.818 535.919 733.866 538.177 733.327 540.507C732.786 542.821 731.756 544.828 730.23 546.523C728.703 548.214 726.843 549.394 724.648 550.058C722.453 550.73 720.146 550.783 717.736 550.222C715.309 549.667 713.259 548.599 711.579 547.021C709.91 545.439 708.76 543.56 708.127 541.378C707.487 539.192 707.435 536.942 707.973 534.628ZM713.483 535.91C713.02 537.883 713.312 539.614 714.349 541.105C715.394 542.592 716.998 543.585 719.157 544.087C721.343 544.599 723.227 544.411 724.808 543.531C726.385 542.647 727.403 541.218 727.866 539.244C728.326 537.234 728.047 535.487 727.034 534.002C726.016 532.512 724.405 531.515 722.194 531.002C720.004 530.498 718.12 530.69 716.542 531.574C714.961 532.454 713.943 533.899 713.483 535.91Z" fill="#FBF5FF"/>
<path d="M738.217 612.904C723.958 636.16 704.869 657.084 681.337 674.118C585.655 743.343 451.792 722.031 382.445 626.515C375.121 616.404 368.81 605.903 363.511 595.092C368.264 591.592 373.407 587.236 377.848 582.18C387.198 571.524 387.198 564.913 394.211 562.501C400.912 560.09 405.119 564.757 417.742 566.157C425.456 567.013 433.559 566.39 440.572 565.302C443.065 569.813 445.87 574.169 448.987 578.447C491.14 636.549 573.188 648.994 632.171 606.37C646.352 596.103 657.884 583.58 666.689 569.735C671.909 574.713 677.519 580.936 681.415 588.091C687.259 598.67 685.935 604.659 691.467 608.315C697.233 612.126 702.375 608.159 715.855 608.704C724.036 608.937 731.984 610.881 738.217 612.904Z" fill="#D30094"/>
<path d="M457.922 630.393L454.964 634.581L461.726 639.357L458.966 643.273L452.205 638.497L448.983 643.053L456.639 648.456L453.781 652.5L441.073 643.512L455.73 622.764L468.437 631.753L465.579 635.797L457.922 630.393Z" fill="#FBF5FF"/>
<path d="M472.159 662.821L471.237 653.514L463.568 658.275L457.349 654.979L470.59 647.364L469.06 632.441L475.439 635.82L476.348 644.965L483.902 640.299L490.121 643.579L476.995 651.115L478.538 666.184L472.159 662.821Z" fill="#FBF5FF"/>
<path d="M507.021 658.343C506.515 659.717 505.737 660.868 504.689 661.797C503.64 662.718 502.33 663.291 500.767 663.514C499.201 663.728 497.439 663.478 495.479 662.769L491.879 661.469L488.756 670.033L482.939 667.907L491.617 644.044L501.033 647.471C502.949 648.171 504.442 649.083 505.515 650.207C506.597 651.335 507.248 652.601 507.476 654.003C507.713 655.396 507.561 656.844 507.021 658.343ZM496.716 657.989C497.829 658.394 498.754 658.436 499.494 658.113C500.23 657.781 500.774 657.143 501.124 656.199C501.47 655.247 501.462 654.41 501.098 653.694C500.741 652.977 500.007 652.416 498.894 652.011L495.728 650.863L493.551 656.841L496.716 657.989Z" fill="#FBF5FF"/>
<path d="M522.208 674.813L512.93 672.843L510.523 676.926L504.177 675.583L518.448 652.632L525.438 654.13L529.175 680.884L522.765 679.524L522.208 674.813ZM521.639 669.827L520.498 660.065L515.518 668.536L521.639 669.827Z" fill="#FBF5FF"/>
<path d="M556.456 682.667L550.272 682.312L540.829 666.086L539.939 681.731L533.755 681.393L535.184 656.028L541.368 656.366L550.81 672.673L551.701 656.947L557.885 657.302L556.456 682.667Z" fill="#FBF5FF"/>
<path d="M571.769 681.902C569.912 682.059 568.222 681.895 566.702 681.419C565.19 680.935 563.946 680.14 562.974 679.034C562.009 677.932 561.429 676.554 561.228 674.902L567.798 674.342C567.965 675.274 568.346 675.962 568.945 676.412C569.54 676.853 570.285 677.039 571.183 676.964C572.089 676.881 572.788 676.613 573.28 676.156C573.772 675.691 573.983 675.084 573.922 674.34C573.875 673.717 573.625 673.216 573.17 672.842C572.711 672.471 572.166 672.176 571.535 671.96C570.9 671.748 569.999 671.516 568.831 671.271C567.156 670.902 565.777 670.509 564.696 670.092C563.624 669.679 562.677 669.01 561.851 668.092C561.033 667.167 560.56 665.907 560.423 664.321C560.225 661.971 560.918 660.059 562.516 658.585C564.111 657.103 566.277 656.243 569.02 656.003C571.803 655.768 574.099 656.252 575.914 657.452C577.738 658.644 578.809 660.43 579.127 662.802L572.461 663.361C572.344 662.531 571.987 661.907 571.391 661.486C570.792 661.069 570.067 660.896 569.218 660.967C568.461 661.02 567.872 661.27 567.445 661.716C567.026 662.153 566.851 662.741 566.916 663.485C566.988 664.306 567.427 664.915 568.229 665.315C569.031 665.707 570.273 666.098 571.96 666.488C573.634 666.882 575.001 667.295 576.061 667.732C577.129 668.16 578.08 668.822 578.907 669.715C579.733 670.613 580.207 671.816 580.337 673.325C580.464 674.773 580.213 676.115 579.58 677.353C578.946 678.596 577.961 679.623 576.623 680.442C575.293 681.254 573.678 681.737 571.769 681.902Z" fill="#FBF5FF"/>
<path d="M600.794 672.258L591.55 674.36L591.073 679.071L584.748 680.508L588.106 653.687L595.079 652.114L609.657 674.852L603.284 676.304L600.794 672.258ZM598.194 667.951L593.073 659.565L592.096 669.343L598.194 667.951ZM584.129 652.784C583.918 649.161 585.147 647.047 587.831 646.443C588.35 646.321 588.819 646.296 589.238 646.368C589.657 646.431 590.188 646.552 590.832 646.732C591.303 646.868 591.677 646.963 591.959 647.008C592.237 647.057 592.516 647.045 592.8 646.972C593.675 646.784 594.065 646.144 593.977 645.052L597.075 644.34C597.297 647.963 596.068 650.077 593.389 650.682C592.87 650.803 592.392 650.828 591.965 650.757C591.546 650.686 591.019 650.564 590.387 650.393C589.913 650.248 589.535 650.15 589.245 650.101C588.962 650.056 588.684 650.06 588.404 650.12C587.528 650.324 587.13 650.981 587.21 652.089L584.129 652.784Z" fill="#FBF5FF"/>
<path d="M625.345 669.219C623.122 670.101 620.883 670.394 618.625 670.1C616.367 669.807 614.32 668.951 612.492 667.532C610.672 666.114 609.303 664.251 608.377 661.942C607.456 659.633 607.172 657.346 607.531 655.077C607.889 652.8 608.789 650.778 610.227 649.01C611.668 647.247 613.495 645.922 615.718 645.04C617.93 644.161 620.164 643.864 622.422 644.158C624.688 644.444 626.719 645.291 628.507 646.709C630.303 648.119 631.664 649.974 632.59 652.283C633.511 654.592 633.803 656.891 633.468 659.181C633.13 661.462 632.242 663.484 630.804 665.248C629.375 667.015 627.557 668.34 625.345 669.219ZM623.262 663.967C625.148 663.213 626.399 661.98 627.02 660.276C627.648 658.565 627.552 656.677 626.736 654.616C625.904 652.535 624.678 651.102 623.054 650.309C621.426 649.508 619.673 649.489 617.787 650.243C615.876 651.001 614.605 652.226 613.964 653.916C613.324 655.599 613.424 657.491 614.264 659.593C615.092 661.687 616.318 663.128 617.946 663.917C619.582 664.71 621.351 664.725 623.262 663.967Z" fill="#FBF5FF"/>
<ellipse cx="555.72" cy="500.719" rx="133.4" ry="133.399" fill="#00166F"/>
<path d="M492.204 495.937C491.739 495.088 491.077 494.442 490.216 493.998C489.364 493.558 488.362 493.335 487.211 493.335C485.207 493.335 483.6 493.994 482.396 495.307C481.188 496.623 480.586 498.377 480.586 500.574C480.586 502.913 481.216 504.739 482.477 506.052C483.745 507.368 485.49 508.023 487.712 508.023C489.231 508.023 490.511 507.643 491.557 506.876C492.612 506.1 493.383 504.985 493.868 503.531H486.015V498.974H499.475V504.727C499.01 506.27 498.231 507.708 497.132 509.041C496.041 510.366 494.652 511.44 492.963 512.256C491.271 513.076 489.364 513.484 487.243 513.484C484.731 513.484 482.493 512.935 480.522 511.836C478.558 510.737 477.032 509.214 475.933 507.263C474.834 505.304 474.285 503.075 474.285 500.574C474.285 498.066 474.834 495.824 475.933 493.852C477.032 491.881 478.554 490.354 480.505 489.264C482.465 488.165 484.698 487.615 487.211 487.615C490.249 487.615 492.806 488.355 494.886 489.829C496.974 491.295 498.36 493.331 499.039 495.937H492.204Z" fill="#FBF5FF"/>
<path d="M515.867 513.306L510.583 503.709H509.097V513.306H502.908V487.906H513.298C515.301 487.906 517.006 488.258 518.42 488.957C519.83 489.647 520.884 490.605 521.587 491.833C522.286 493.053 522.637 494.41 522.637 495.904C522.637 497.585 522.156 499.096 521.199 500.429C520.25 501.754 518.844 502.691 516.982 503.24L522.847 513.306H515.867ZM509.097 499.33H512.926C514.065 499.33 514.918 499.055 515.479 498.506C516.049 497.948 516.335 497.161 516.335 496.147C516.335 495.189 516.049 494.434 515.479 493.885C514.918 493.327 514.065 493.044 512.926 493.044H509.097V499.33Z" fill="#FBF5FF"/>
<path d="M538.523 513.565C536.132 513.565 533.938 513.011 531.947 511.9C529.951 510.794 528.368 509.243 527.196 507.247C526.033 505.256 525.451 503.014 525.451 500.525C525.451 498.049 526.033 495.819 527.196 493.836C528.368 491.857 529.951 490.31 531.947 489.199C533.938 488.092 536.132 487.534 538.523 487.534C540.902 487.534 543.088 488.092 545.083 489.199C547.074 490.31 548.642 491.857 549.785 493.836C550.936 495.819 551.514 498.049 551.514 500.525C551.514 503.014 550.932 505.256 549.769 507.247C548.614 509.243 547.046 510.794 545.067 511.9C543.083 513.011 540.902 513.565 538.523 513.565ZM538.523 507.909C540.547 507.909 542.167 507.239 543.386 505.89C544.602 504.532 545.212 502.747 545.212 500.525C545.212 498.287 544.602 496.498 543.386 495.161C542.167 493.816 540.547 493.141 538.523 493.141C536.463 493.141 534.827 493.812 533.611 495.145C532.391 496.47 531.785 498.263 531.785 500.525C531.785 502.779 532.391 504.573 533.611 505.906C534.827 507.243 536.463 507.909 538.523 507.909Z" fill="#FBF5FF"/>
<path d="M589.909 487.906L583.284 513.306H575.787L571.731 496.583L567.53 513.306H560.049L553.602 487.906H560.227L563.878 506.391L568.403 487.906H575.205L579.552 506.391L583.252 487.906H589.909Z" fill="#FBF5FF"/>
<path d="M611.285 487.906V492.851H604.547V513.306H598.358V492.851H591.637V487.906H611.285Z" fill="#FBF5FF"/>
<path d="M636.403 487.906V513.306H630.214V502.852H620.584V513.306H614.396V487.906H620.584V497.859H630.214V487.906H636.403Z" fill="#FBF5FF"/>
</svg>
