<svg width="25" height="24" viewBox="0 0 25 24" fill="none" xmlns="http://www.w3.org/2000/svg">
<path id="Vector" d="M21.0025 3.49206C19.8967 2.38099 18.5796 1.50002 17.1282 0.900497C15.6767 0.300974 14.1198 -0.00511579 12.5482 6.4674e-05C5.96332 6.4674e-05 0.596483 5.34005 0.596483 11.892C0.596483 13.992 1.15126 16.032 2.18844 17.832L0.5 24L6.83166 22.344C8.5804 23.292 10.5462 23.796 12.5482 23.796C19.1332 23.796 24.5 18.456 24.5 11.904C24.5 8.72404 23.2578 5.73605 21.0025 3.49206ZM12.5482 21.78C10.7633 21.78 9.01457 21.3 7.48291 20.4L7.1211 20.184L3.35829 21.168L4.3593 17.52L4.11809 17.148C3.12619 15.5725 2.59961 13.7512 2.59849 11.892C2.59849 6.44405 7.0608 2.00406 12.5362 2.00406C15.1894 2.00406 17.6859 3.03606 19.5553 4.90805C20.481 5.82469 21.2147 6.9151 21.7136 8.11604C22.2126 9.31698 22.4669 10.6045 22.4618 11.904C22.4859 17.352 18.0236 21.78 12.5482 21.78ZM17.9995 14.388C17.698 14.244 16.2266 13.524 15.9613 13.416C15.6839 13.32 15.491 13.272 15.2859 13.56C15.0809 13.86 14.5141 14.532 14.3452 14.724C14.1764 14.928 13.9955 14.952 13.694 14.796C13.3925 14.652 12.4276 14.328 11.294 13.32C10.4015 12.528 9.81055 11.556 9.62965 11.256C9.4608 10.956 9.60553 10.8 9.76231 10.644C9.89497 10.512 10.0638 10.296 10.2085 10.128C10.3533 9.96004 10.4136 9.82804 10.51 9.63604C10.6065 9.43204 10.5583 9.26404 10.4859 9.12004C10.4136 8.97604 9.81055 7.51204 9.56935 6.91205C9.32814 6.33605 9.07487 6.40805 8.89397 6.39605H8.31507C8.11005 6.39605 7.79648 6.46805 7.51909 6.76805C7.25377 7.06805 6.48191 7.78804 6.48191 9.25204C6.48191 10.716 7.55528 12.132 7.7 12.324C7.84472 12.528 9.81055 15.528 12.8015 16.812C13.5131 17.124 14.0678 17.304 14.502 17.436C15.2136 17.664 15.8648 17.628 16.3834 17.556C16.9623 17.472 18.1563 16.836 18.3975 16.14C18.6508 15.444 18.6508 14.856 18.5663 14.724C18.4819 14.592 18.301 14.532 17.9995 14.388Z" fill="#FBF5FF"/>
</svg>
